<svg id="Filled_stroke_Cut_Ex" height="512" viewBox="0 0 512 512" width="512" xmlns="http://www.w3.org/2000/svg" data-name="Filled stroke Cut Ex"><g><path d="m478 40h-156a10 10 0 0 0 -10 10v108a10 10 0 0 0 10 10h46l32 48 31.429-48h46.571a10 10 0 0 0 10-10v-108a10 10 0 0 0 -10-10z" fill="#fdebeb"/><g><g><path d="m221.347 488h-157.347l-24-344h224l-22.7 325.392a20 20 0 0 1 -19.953 18.608z" fill="#f15a57"/><path d="m24 112h256v32h-256z" fill="#fef2f1"/><path d="m176 112-32.006-70.414a30 30 0 0 0 -27.311-17.586h-76.683v32h72l24 56z" fill="#aa3947"/></g><g><path d="m452 488h-280a20 20 0 0 1 -20-20v-20h320v20a20 20 0 0 1 -20 20z" fill="#fb8656"/><rect fill="#aa3947" height="48" rx="20" width="352" x="136" y="400"/><rect fill="#aa3947" height="64" rx="20" width="352" x="136" y="304"/><path d="m212 416c19.86 0 37.467-7.72 48.387-19.613 11.649 11.893 30.429 19.613 51.613 19.613s39.964-7.72 51.613-19.613c10.92 11.893 28.527 19.613 48.387 19.613 33.137 0 60-21.49 60-48h-320c0 26.51 26.863 48 60 48z" fill="#d4d580"/><path d="m312 384-112-80h224z" fill="#fdc069"/></g><path d="m240 216h144a80 80 0 0 1 80 80v8a0 0 0 0 1 0 0h-304a0 0 0 0 1 0 0v-8a80 80 0 0 1 80-80z" fill="#fb8656"/></g><path d="m400.043 135.7-35.375-36.378a16.086 16.086 0 0 1 0-22.3 15.037 15.037 0 0 1 21.684 0l13.691 14.078 13.691-14.079a15.036 15.036 0 0 1 21.683 0 16.086 16.086 0 0 1 0 22.3z" fill="#f15a57"/><g><path d="m252.671 191.443 15.961 1.114 2.829-40.557h8.539a8 8 0 0 0 8-8v-32a8 8 0 0 0 -8-8h-98.849l-12.414-27.311-14.565 6.622 9.4 20.689h-22.3l-21.919-51.151a8 8 0 0 0 -7.353-4.849h-64v-16h68.683a22.044 22.044 0 0 1 20.027 12.9l10.19 22.411 14.567-6.622-10.191-22.414a38.077 38.077 0 0 0 -34.593-22.275h-76.683a8 8 0 0 0 -8 8v32a8 8 0 0 0 8 8h66.725l17.143 40h-99.868a8 8 0 0 0 -8 8v32a8 8 0 0 0 8 8h231.423zm-220.671-71.443h240v16h-240z"/><path d="m256 240h16v16h-16z"/><path d="m304 264h16v16h-16z"/><path d="m352 240h16v16h-16z"/><path d="m424.576 64.405a22.962 22.962 0 0 0 -16.576 7.041l-7.956 8.181-7.955-8.181a22.96 22.96 0 0 0 -16.577-7.041 22.962 22.962 0 0 0 -16.578 7.041 24.159 24.159 0 0 0 0 33.453l35.375 36.377a8 8 0 0 0 11.471 0l35.373-36.376a24.159 24.159 0 0 0 0-33.453 22.96 22.96 0 0 0 -16.577-7.042zm5.106 29.34-29.64 30.48-29.642-30.48a8.048 8.048 0 0 1 0-11.144 7.035 7.035 0 0 1 10.213 0l13.694 14.079a8 8 0 0 0 11.471 0l13.691-14.08a7.035 7.035 0 0 1 10.213 0 8.048 8.048 0 0 1 0 11.145z"/><path d="m478 176a18.021 18.021 0 0 0 18-18v-108a18.021 18.021 0 0 0 -18-18h-156a18.021 18.021 0 0 0 -18 18v108a18.021 18.021 0 0 0 18 18h41.719l21.338 32.007q-.528-.007-1.057-.007h-144a88.1 88.1 0 0 0 -88 88v.285a28.044 28.044 0 0 0 -24 27.715v24a28.038 28.038 0 0 0 16.319 25.445 48.343 48.343 0 0 0 6.526 19.031 28.046 28.046 0 0 0 -22.845 27.524v8a28.036 28.036 0 0 0 16 25.3v14.7a27.836 27.836 0 0 0 2.7 12h-75.239l-21.806-312.557-15.961 1.114 22.326 320a8 8 0 0 0 7.98 7.443h312v-16h-204a12.013 12.013 0 0 1 -12-12v-12h304v12a12.013 12.013 0 0 1 -12 12h-60v16h60a28.032 28.032 0 0 0 28-28v-14.7a28.036 28.036 0 0 0 16-25.3v-8a28.046 28.046 0 0 0 -22.845-27.524 48.343 48.343 0 0 0 6.526-19.031 28.038 28.038 0 0 0 16.319-25.445v-24a28.043 28.043 0 0 0 -24-27.715v-.285a87.172 87.172 0 0 0 -8.8-38.409l-14.4 6.992a71.294 71.294 0 0 1 7.2 31.417h-288a72.081 72.081 0 0 1 72-72h144a71.459 71.459 0 0 1 57.609 28.805l12.791-9.605a87.485 87.485 0 0 0 -42.523-30.734l23.876-36.466zm-170.65 214.51a8 8 0 0 0 9.3 0l20.314-14.51h125.991c-4.831 18.236-25.843 32-50.955 32-16.821 0-32.707-6.364-42.495-17.023a8 8 0 0 0 -11.608-.187c-10.555 10.776-27.712 17.21-45.897 17.21s-35.342-6.434-45.9-17.21a8 8 0 0 0 -11.608.187c-9.785 10.659-25.671 17.023-42.492 17.023-25.112 0-46.124-13.764-50.955-32h125.991zm172.65 29.49v8a12.013 12.013 0 0 1 -12 12h-312a12.013 12.013 0 0 1 -12-12v-8a12.013 12.013 0 0 1 12-12h8.456c12.269 9.893 29.057 16 47.544 16 18.574 0 35.841-6.016 48.551-16.72 13.454 10.701 31.763 16.72 51.449 16.72s38-6.019 51.449-16.72c12.71 10.704 29.977 16.72 48.551 16.72 18.487 0 35.275-6.107 47.544-16h8.456a12.013 12.013 0 0 1 12 12zm-12-108a12.013 12.013 0 0 1 12 12v24a12.013 12.013 0 0 1 -12 12h-108.636l67.2-48zm-68.964 0-87.036 62.169-87.036-62.169zm-201.6 0 67.2 48h-108.636a12.013 12.013 0 0 1 -12-12v-24a12.013 12.013 0 0 1 12-12zm227.3-148.382-24.8 37.869-25.284-37.925a8 8 0 0 0 -6.652-3.562h-46a2 2 0 0 1 -2-2v-108a2 2 0 0 1 2-2h156a2 2 0 0 1 2 2v108a2 2 0 0 1 -2 2h-46.571a8 8 0 0 0 -6.693 3.618z"/></g></g></svg>